# xmcd CD database file
#
# Track frame offsets:
#	150
#	14825
#	26415
#	37130
#	50642
#	68375
#	82990
#	94965
#	106862
#	117975
#	131722
#	146960
#
# Disc length: 2097 seconds
#
# Revision: 3
# Processed by: cddbd v1.5.2PL0 Copyright (c) Steve Scherf et al.
# Submitted via: CDex 1.51
#
DISCID=a9082f0c
DTITLE=Heather Myles - Highways and Honky Tonks
DYEAR=1998
DGENRE=Country
TTITLE0=Heather Myles - You're Gonna Love Me One Day
TTITLE1=Heather Myles - Kiss An Angel Good Morning
TTITLE2=Heather Myles - You've Taken Me Places I Wish I've Never Been
TTITLE3=Heather Myles - Broken Heart For Sale
TTITLE4=Heather Myles - True Love
TTITLE5=Heather Myles with Merle Haggard - No One Is Gonna Love You Better
TTITLE6=Heather Myles - Playin' Every Honky Tonk In Town
TTITLE7=Heather Myles - Mr. Lonesome
TTITLE8=Heather Myles - Rock At The End Of My Rainbow
TTITLE9=Heather Myles - Who Did You Call Darlin'
TTITLE10=Heather Myles - Love Me A Little Bit Longer
TTITLE11=Heather Myles - I'll Be There If You Ever Want Me
EXTD=None YEAR: 1998
EXTT0=
EXTT1=
EXTT2=
EXTT3=
EXTT4=
EXTT5=Duet with Merle Haggard
EXTT6=
EXTT7=
EXTT8=
EXTT9=
EXTT10=
EXTT11=
PLAYORDER=
